<svg width="24" height="16" viewBox="0 0 24 16" fill="none" xmlns="http://www.w3.org/2000/svg">
<g clip-path="url(#clip0_10681_231)">
<path d="M6.85161 0.519602C6.89206 0.479095 6.93048 0.462891 6.96486 0.462891C7.02452 0.462891 7.06699 0.516563 7.06496 0.580361C7.06294 0.619855 7.04676 0.661374 7.00834 0.698843C5.52295 2.54899 4.44202 4.71307 4.44202 7.71362C4.44202 10.7121 5.52295 12.8337 7.00834 14.6838C7.04575 14.7213 7.06294 14.7659 7.06496 14.8023C7.06597 14.8671 7.02452 14.9208 6.96486 14.9208C6.93149 14.9208 6.89206 14.9046 6.85161 14.8641L0.517713 8.72933C0.20122 8.45894 0 8.14198 0 7.69235C0 7.2407 0.202231 6.92475 0.517713 6.65538L6.85161 0.519602Z" fill="#E30613"/>
<path d="M11.7195 0C9.24018 0 8.27148 3.52004 8.27148 7.71351C8.27148 11.909 9.24018 15.3815 11.7195 15.3815C13.208 15.3815 14.476 14.5085 14.48 13.7906C14.48 13.6336 14.4203 13.4837 14.2889 13.3521C13.5841 12.6695 13.3091 11.988 13.305 11.3855C13.301 10.2361 14.297 9.38037 15.2131 9.38037C16.475 9.38037 17.2182 10.3738 17.2182 11.6589C17.2182 12.8771 16.6995 13.8928 16.1363 14.705C16.114 14.7384 16.1049 14.7749 16.1049 14.8073C16.1049 14.8701 16.1423 14.9227 16.199 14.9227C16.2334 14.9227 16.2738 14.9045 16.3163 14.8609L22.6512 8.72619C22.9667 8.4558 23.1689 8.13884 23.1689 7.68921C23.1689 7.23756 22.9667 6.92161 22.6512 6.65224L16.3163 0.515449C16.2728 0.472917 16.2334 0.453676 16.199 0.453676C16.1413 0.453676 16.1049 0.507348 16.1049 0.571146C16.1049 0.603552 16.114 0.640008 16.1363 0.674439C16.6995 1.48559 17.2182 2.50231 17.2182 3.71853C17.2182 5.00361 16.474 5.99805 15.2131 5.99805C14.296 5.99805 13.301 5.14133 13.305 3.99195C13.3081 3.39143 13.5841 2.70788 14.2889 2.02635C14.4203 1.89369 14.48 1.74483 14.48 1.58787C14.476 0.874947 13.207 0 11.7195 0Z" fill="#E20F1B"/>
</g>
<defs>
<clipPath id="clip0_10681_231">
<rect width="23.1687" height="15.3815" fill="white"/>
</clipPath>
</defs>
</svg>
